<svg version="1" xmlns="http://www.w3.org/2000/svg" width="933.333" height="933.333" viewBox="0 0 700.000000 700.000000"><path d="M290.8 59.1c-32.3 32.4-60.6 60.2-62.9 61.8-12 8.8-29.5 9.9-43.1 2.9-6.3-3.3-14.5-11.8-17.2-18-1.3-2.9-3.3-9.4-4.5-14.3-2.5-10.6-4.3-15-9-22.5-8.6-13.7-24.7-24.8-39.8-27.5-13.8-2.5-27.1-.6-39.9 5.6-19.9 9.7-32.8 29.4-33.9 51.7C39 129.7 59.3 155.6 91 163c21.5 5 32.4 14.7 36.5 32.2 2.6 11.5-.1 24.2-7.1 33.3-1.9 2.5-29.7 30.8-61.9 63L0 350l58.5 58.5c32.2 32.2 60 60.5 61.9 63 7 9.2 9.7 21.5 7.1 33.1-1.9 8.3-4.9 13.9-11 19.9-6.6 6.7-11.2 9-23.7 12-16.8 4.1-25.3 8.7-35.4 19.1-11.6 12-17.6 28.1-16.9 45.4.2 5 .7 9.5 1 10 .4.6.9 2.3 1.1 3.8.3 1.5 2.4 6.5 4.6 11.1 14.7 29.7 52.5 42.3 82.3 27.4 18-9.1 30.3-26 34-46.8 5.2-28.9 35.3-43.6 60.9-29.7 3.6 1.9 22.1 19.8 65.3 62.9L350 700l59.2-59.2c32.6-32.6 60.7-61.4 62.4-64 13.4-19.9 6.3-48.3-14.8-58.6-3.5-1.6-10.9-4.2-16.6-5.6-11.8-3-17.2-5.5-25.9-12-14.9-11.2-23.5-28.9-23.6-48.6-.1-34.2 27-61.2 61.8-61.2 29.4-.1 53 19.6 60.5 50.2 1.3 5.2 3.3 11.9 4.6 14.8 2.6 6 11.1 15 17 18 9.2 4.7 21.3 6 31 3.3 9.4-2.6 13.9-6.6 74.4-67.1l60-60-60.4-60.4c-53.5-53.5-60.8-61.2-63.5-66.8-4.6-9.2-5.5-15.2-4-24.8 2.7-17 15.4-30.5 31.9-33.9 9.7-2 12.3-2.7 17.5-4.9 12.7-5.2 25.1-16.7 30.8-28.3 2-4.1 3.8-8.2 4.1-9.2.3-.9.6-1.9.7-2.2 3.1-9.3 3.1-25.5 0-35.2-11.1-35.7-50.8-53.7-84.5-38.4-19.1 8.7-31.6 25-36.1 47.1-.2.8-.8 3.5-1.5 5.9-4.8 17.8-21.9 30.2-40.5 29.5-8-.3-9.9-.8-17.3-4.5-5.6-2.7-13.3-10-66.8-63.5C377.2 27.2 349.9 0 349.7.1c-.1 0-26.6 26.6-58.9 59z"/></svg>