<svg width="334" height="384" viewBox="0 0 334 384" xmlns="http://www.w3.org/2000/svg">
  <g fill="none" fill-rule="evenodd">
    <path d="M169 1.155l162.277 93.69a4 4 0 0 1 2 3.464v187.382a4 4 0 0 1-2 3.464L169 382.845a4 4 0 0 1-4 0L2.723 289.155a4 4 0 0 1-2-3.464V98.309a4 4 0 0 1 2-3.464L165 1.155a4 4 0 0 1 4 0z" fill="#EBEDF5"/>
    <path d="M169 33.155l134.564 77.69a4 4 0 0 1 2 3.464v155.382a4 4 0 0 1-2 3.464L169 350.845a4 4 0 0 1-4 0l-134.564-77.69a4 4 0 0 1-2-3.464V114.309a4 4 0 0 1 2-3.464L165 33.155a4 4 0 0 1 4 0z" fill="#E1E4F0"/>
  </g>
</svg>
