<svg xmlns="http://www.w3.org/2000/svg" viewBox="0 0 32 32">
  <path
    stroke="#fff"
    d="M.5.5h31v31H.5z"
  />
  <path
    fill="#fff"
    d="M7.765 3.385q.408 0 .68-.028v.182q-.18.045-.353.236-.173.182-.373.572L6.294 7.171v1.653q0 .345.054.5.055.154.2.208.154.055.481.073v.182q-.418-.028-1.153-.028-.781 0-1.162.028v-.182q.326-.018.472-.073.154-.054.209-.209.054-.154.054-.499V7.462L3.606 4.057q-.164-.3-.29-.4-.119-.109-.237-.109v-.19q.354.027.8.027.88 0 1.27-.028v.191q-.635 0-.635.345 0 .136.09.318l1.508 2.897L7.274 4.8q.245-.481.245-.78 0-.255-.2-.364-.2-.109-.599-.118v-.182q.518.028 1.045.028zM12.577 3.23q.863 0 1.508.39.654.391 1.008 1.136.363.735.363 1.761 0 1-.372 1.771-.363.772-1.026 1.199-.654.427-1.49.427-.862 0-1.516-.39-.645-.391-1.008-1.127-.354-.744-.354-1.77 0-1 .363-1.771.372-.772 1.026-1.199.663-.427 1.498-.427zm-.036.164q-.581 0-1.026.408-.436.4-.681 1.126-.236.727-.236 1.662 0 .944.263 1.662.273.717.727 1.108.454.39 1.017.39.58 0 1.017-.4.445-.408.68-1.134.246-.727.246-1.662 0-.945-.272-1.662-.264-.717-.718-1.108-.454-.39-1.017-.39zM22.235 3.539q-.318.018-.472.1-.155.072-.21.254-.054.173-.054.518v2.733q0 .654-.09 1.126-.082.463-.282.8-.227.39-.672.617-.436.227-.99.227-.999 0-1.525-.49-.4-.373-.536-.845t-.136-1.408V4.32q0-.345-.055-.5-.054-.154-.209-.208-.145-.055-.472-.073v-.182q.382.028 1.162.028.736 0 1.154-.028v.182q-.327.018-.482.073-.145.054-.2.208-.054.155-.054.5v3.006q0 .726.1 1.207.1.482.409.772.318.29.926.29.963 0 1.353-.617t.39-1.734V4.41q0-.49-.181-.672-.173-.182-.645-.2v-.182q.327.028.926.028.545 0 .845-.028v.182zM29 9.332q-.209.31-.418.445-.209.137-.554.137-.372 0-.617-.218-.236-.218-.354-.763l-.2-.908q-.109-.472-.209-.727-.09-.254-.281-.408-.191-.155-.536-.155h-.863v2.089q0 .345.055.5.054.154.2.208.154.055.48.073v.181q-.417-.027-1.153-.027-.78 0-1.162.027v-.181q.327-.018.472-.073.155-.054.21-.209.054-.154.054-.5V4.32q0-.345-.055-.5-.054-.154-.209-.208-.145-.055-.472-.073v-.182q.381.028 1.108.028l.98-.01q.173-.008.391-.008 1.054 0 1.617.445.572.435.572 1.135 0 .354-.173.717-.163.354-.563.645-.39.281-1.026.381l.109.018q.6.1.872.363.272.264.4.836l.226.926q.091.418.19.581.1.164.273.164.155 0 .255-.082.109-.082.245-.263l.136.1zM25.64 3.54q-.281 0-.427.064-.136.063-.19.227-.055.163-.055.49v2.234h.609q.899 0 1.235-.4.336-.4.336-1.108 0-.744-.355-1.126-.354-.381-1.153-.381zM5.894 12.658q.536 0 .88.155.346.145.755.436.118.09.181.09.173 0 .227-.554h.209q-.036.59-.036 2.089H7.9q-.08-.481-.172-.79-.09-.318-.281-.554-.264-.327-.69-.518-.418-.19-.881-.19-.6 0-1.054.39-.454.39-.699 1.117-.245.718-.245 1.68 0 1.635.518 2.397.526.754 1.643.754.545 0 .945-.281.163-.11.209-.21.054-.108.054-.29v-.872q0-.381-.073-.554-.072-.172-.254-.236-.181-.063-.59-.081v-.182q.472.027 1.28.027.618 0 .945-.027v.182q-.21.018-.31.072-.09.055-.126.21-.027.154-.027.499v1.798H7.91q-.01-.182-.073-.345-.063-.173-.172-.173-.055 0-.11.027-.054.027-.19.127-.318.245-.663.364-.336.127-.754.127-.935 0-1.607-.382-.663-.39-1.017-1.117-.354-.726-.354-1.734 0-1.035.372-1.816.382-.79 1.045-1.208.662-.427 1.507-.427zM13.73 12.967q-.326.018-.48.073-.146.054-.2.208-.055.155-.055.5v4.504q0 .345.055.5.054.154.2.208.154.055.48.073v.182q-.417-.028-1.153-.028-.78 0-1.162.028v-.182q.327-.018.472-.073.155-.054.21-.209.054-.154.054-.499v-4.504q0-.345-.055-.5-.054-.154-.209-.208-.145-.055-.472-.073v-.182q.382.028 1.162.028.727 0 1.154-.028v.182zM21.65 12.785q-.064.645-.064 1.163 0 .454.027.744h-.21q-.072-.699-.18-1.035-.11-.345-.382-.5-.272-.163-.835-.163h-.573q-.326 0-.48.055-.146.045-.2.2-.055.154-.055.499v2.234h.663q.318 0 .49-.145.173-.155.227-.355.064-.208.1-.517l.027-.182h.21q-.028.382-.028.854v.436q0 .463.054 1.29h-.208q-.01-.064-.055-.437-.045-.381-.254-.572-.2-.19-.563-.19h-.663v2.088q0 .345.073.5.072.154.254.208.181.055.59.073v.182q-.472-.028-1.335-.028-.78 0-1.162.028v-.182q.327-.018.472-.073.154-.054.209-.209.054-.154.054-.499v-4.504q0-.345-.054-.5-.055-.154-.209-.208-.145-.055-.472-.073v-.182q.89.028 2.633.028 1.335 0 1.898-.028zM28.75 12.785q-.063.645-.063 1.163 0 .454.027.744h-.209q-.073-.699-.182-1.035-.108-.345-.38-.5-.273-.163-.836-.163h-.49v5.167q0 .382.072.554.073.173.254.236.182.064.59.082v.182q-.472-.028-1.334-.028-.908 0-1.344.028v-.182q.408-.018.59-.082.181-.063.254-.236.073-.172.073-.554v-5.167h-.49q-.564 0-.836.164-.272.154-.381.5-.11.335-.182 1.034h-.209q.027-.29.027-.744 0-.518-.063-1.163.753.028 2.56.028 1.799 0 2.552-.028zM8.818 22.395q-.327.018-.481.073-.146.054-.2.209-.055.154-.055.499v4.504q0 .345.055.5.054.154.2.208.154.055.481.073v.182q-.381-.028-1.162-.028-.736 0-1.154.028v-.182q.327-.018.473-.073.154-.054.208-.208.055-.155.055-.5V25.5H4.287v2.18q0 .345.054.5.055.154.2.208.154.055.481.073v.182q-.417-.028-1.153-.028-.781 0-1.162.028v-.182q.327-.018.472-.073.154-.054.209-.208.054-.155.054-.5v-4.504q0-.345-.054-.5-.055-.154-.21-.208-.144-.055-.471-.073v-.181q.381.027 1.162.027.726 0 1.153-.027v.181q-.327.018-.481.073-.145.054-.2.209-.054.154-.054.5v2.142h2.951v-2.143q0-.345-.055-.5-.054-.154-.208-.208-.146-.055-.473-.073v-.181q.418.027 1.154.027.78 0 1.162-.027v.181zM15.424 22.395q-.318.018-.472.1-.154.073-.209.254-.054.173-.054.518V26q0 .654-.091 1.126-.082.463-.282.8-.227.39-.672.617-.435.227-.99.227-.998 0-1.525-.49-.4-.373-.536-.845t-.136-1.408v-2.85q0-.346-.054-.5-.055-.155-.21-.21-.145-.054-.471-.072v-.181q.381.027 1.162.027.735 0 1.153-.027v.181q-.327.018-.481.073-.145.054-.2.209-.054.154-.054.5v3.005q0 .726.1 1.208.1.48.408.771.318.291.926.291.963 0 1.353-.617.39-.618.39-1.735v-2.833q0-.49-.18-.672-.173-.182-.645-.2v-.181q.326.027.926.027.545 0 .844-.027v.181zM22.235 22.395q-.318.018-.472.1-.155.073-.21.254-.054.173-.054.518v5.421h-.209l-3.813-5.893v4.794q0 .354.054.527.064.173.236.254.173.073.536.091v.182q-.327-.027-.926-.027-.545 0-.845.027v-.182q.318-.018.472-.09.155-.082.21-.255.054-.182.054-.527v-4.413q0-.345-.055-.5-.054-.154-.209-.208-.145-.055-.472-.073v-.181q.3.027.845.027.408 0 .708-.027l3.205 4.94v-3.887q0-.354-.063-.527-.055-.172-.227-.245-.173-.082-.536-.1v-.181q.327.027.926.027.545 0 .845-.027v.181zM28.75 22.214q-.063.644-.063 1.162 0 .454.027.744h-.209q-.073-.699-.182-1.035-.108-.345-.38-.5-.273-.163-.836-.163h-.49v5.167q0 .382.072.554.073.173.254.236.182.064.59.082v.182q-.472-.028-1.334-.028-.908 0-1.344.028v-.182q.408-.018.59-.082.181-.063.254-.236.073-.172.073-.554v-5.167h-.49q-.564 0-.836.164-.272.154-.381.5-.11.335-.182 1.034h-.209q.027-.29.027-.744 0-.518-.063-1.162.753.027 2.56.027 1.799 0 2.552-.027z"
  />
</svg>
