<svg viewBox="0 0 58 68" xmlns="http://www.w3.org/2000/svg">
  <g stroke-width="2" stroke="#000">
    <path fill="#fff" d="M29 66L1 50V18L29 2l28 16v32z"/>
    <path fill="none" d="M1 18l28 16 28-16M29 34v32"/>
  </g>
  <path d="M42.082 15.703a20.57 20.57 0 0 0 1.673.878l-.482.277c-1.108-.174-2.91.019-5.407.58l-6.364 1.443-6.407 3.69c-.61.352-1.014.628-1.21.83-.198.2-.247.384-.15.551.098.167.352.387.764.66l-.482.278c-.755-.49-1.923-1.188-3.503-2.096-1.649-.947-2.871-1.622-3.668-2.024l.482-.277c.476.236.862.384 1.16.444.297.06.616.031.959-.086.342-.118.818-.352 1.428-.704l4.432-2.553L29.7 10.64c.244-.396.37-.716.379-.96.009-.244-.07-.414-.236-.51l.506-.29c.762.548 1.67 1.125 2.723 1.73 1.192.685 2.764 1.533 4.718 2.544l-.506.291c-.554-.318-1.002-.538-1.344-.66-.341-.123-.632-.115-.873.024a.848.848 0 0 0-.278.256l-3.628 5.51 3.103-.712c2.161-.495 3.683-.997 4.566-1.506 1.14-.657 1.18-1.318.12-1.982l.482-.278a75.57 75.57 0 0 0 2.65 1.606zm10.47 12.783c-.512.323-.884.6-1.116.828a1.715 1.715 0 0 0-.468.819c-.08.317-.12.78-.12 1.388v11.904c0 .608.044 1.023.132 1.245.088.222.244.317.468.285.224-.032.592-.178 1.104-.437v.48c-.864.444-2.208 1.187-4.032 2.227a146.09 146.09 0 0 0-4.248 2.494v-.48c.512-.324.884-.6 1.116-.828a1.72 1.72 0 0 0 .468-.82c.08-.317.12-.78.12-1.388v-5.76l-5.4 3.08v5.76c0 .608.044 1.023.132 1.244.088.222.244.317.468.286.224-.032.592-.178 1.104-.438v.48c-.928.481-2.264 1.22-4.008 2.214-1.936 1.104-3.36 1.94-4.272 2.508v-.48c.512-.324.884-.6 1.116-.829.232-.228.388-.5.468-.819.08-.317.12-.78.12-1.388V40.157c0-.608-.044-1.023-.132-1.245-.088-.222-.244-.317-.468-.285-.224.032-.592.178-1.104.438v-.48c.912-.472 2.336-1.26 4.272-2.364a131.993 131.993 0 0 0 4.008-2.358v.48c-.512.324-.884.6-1.116.828a1.715 1.715 0 0 0-.468.82c-.08.317-.12.78-.12 1.388v5.664l5.4-3.08V34.3c0-.608-.044-1.022-.132-1.244-.088-.222-.244-.317-.468-.285-.224.031-.592.177-1.104.437v-.48a141.63 141.63 0 0 0 4.248-2.35c1.824-1.04 3.168-1.83 4.032-2.371v.48zm-36.66 5.322c1.024.58 1.904 1.214 2.64 1.903a15.884 15.884 0 0 1 2.016 2.294c.176.243.336.406.48.488.16.09.288.047.384-.13.096-.179.168-.502.216-.97l.552.312c-.064 1.1-.096 3.082-.096 5.946l-.552-.313c-.112-1.327-.32-2.445-.624-3.353-.304-.909-.832-1.832-1.584-2.77a9.209 9.209 0 0 0-1.164-1.187 8.339 8.339 0 0 0-1.308-.933c-1.152-.652-2.084-.776-2.796-.371-.712.404-1.216 1.139-1.512 2.203-.296 1.065-.444 2.269-.444 3.613 0 2.784.34 5.056 1.02 6.817.68 1.762 1.628 2.987 2.844 3.675.496.281.888.407 1.176.378.336-.05.504-.354.504-.914v-2.4c0-.8-.064-1.424-.192-1.873a2.584 2.584 0 0 0-.684-1.155c-.328-.322-.844-.698-1.548-1.13v-.48c1.088.665 2.616 1.555 4.584 2.67 1.648.933 2.88 1.607 3.696 2.02v.48c-.288-.13-.5-.187-.636-.168-.136.02-.228.151-.276.396-.048.245-.072.671-.072 1.28v4.751l-.48-.272a3.664 3.664 0 0 0-.216-1.058c-.128-.36-.304-.604-.528-.73-.336-.191-.88-.315-1.632-.373-1.6-.139-2.952-.52-4.056-1.146-2.976-1.685-5.224-3.71-6.744-6.075-1.52-2.365-2.28-4.94-2.28-7.724 0-1.76.396-3.095 1.188-4.007.792-.911 1.892-1.344 3.3-1.299 1.408.046 3.016.58 4.824 1.605z"/>
</svg>
