<svg xmlns="http://www.w3.org/2000/svg" viewBox="0 2 24 12">
  <path
    stroke="#fff"
    d="M.5 2.5h23v11H.5z"
  />
  <path
    fill="#fff"
    d="M7.186 4.813q.408 0 .68-.028v.182q-.18.045-.353.236-.173.182-.373.572L5.715 8.6v1.653q0 .345.054.5.055.154.2.208.154.055.481.073v.182q-.418-.028-1.153-.028-.781 0-1.162.028v-.182q.326-.018.472-.073.154-.054.209-.208.054-.155.054-.5V8.89L3.027 5.485q-.164-.3-.29-.4-.119-.109-.237-.109v-.19q.354.027.8.027.88 0 1.27-.028v.191q-.635 0-.635.345 0 .136.09.318l1.508 2.897 1.162-2.307q.245-.481.245-.78 0-.255-.2-.364-.2-.109-.599-.118v-.182q.518.028 1.045.028zM11.724 4.658q.536 0 .88.155.346.145.755.436.118.09.181.09.173 0 .227-.554h.209q-.036.59-.036 2.089h-.21q-.08-.481-.172-.79-.09-.318-.281-.554-.264-.327-.69-.518-.418-.19-.881-.19-.6 0-1.054.39-.454.39-.699 1.117-.245.718-.245 1.68 0 1.635.518 2.397.526.754 1.643.754.545 0 .945-.281.163-.11.209-.21.054-.108.054-.29v-.872q0-.38-.073-.553-.072-.173-.254-.237-.181-.063-.59-.081v-.182q.472.027 1.28.027.618 0 .945-.027v.182q-.21.018-.31.072-.09.055-.126.21-.027.154-.027.499v1.798h-.182q-.01-.182-.073-.345-.063-.173-.172-.173-.055 0-.11.027-.054.027-.19.127-.318.246-.663.364-.336.127-.754.127-.935 0-1.607-.382-.663-.39-1.017-1.117Q8.8 9.117 8.8 8.11q0-1.035.372-1.816.382-.79 1.045-1.208.662-.427 1.507-.427zM21.5 4.967q-.327.018-.48.073-.146.054-.2.209-.055.154-.055.499v4.504q0 .345.054.5.055.154.2.208.154.055.481.073v.182q-.381-.028-1.162-.028-.736 0-1.153.028v-.182q.327-.018.472-.073.154-.054.209-.209.054-.154.054-.499v-2.18h-2.95v2.18q0 .345.054.5.054.154.2.208.154.055.48.073v.182q-.417-.028-1.153-.028-.78 0-1.162.028v-.182q.327-.018.472-.073.155-.054.21-.209.054-.154.054-.499V5.748q0-.345-.055-.5-.054-.154-.209-.208-.145-.055-.472-.073v-.182q.381.028 1.162.028.727 0 1.154-.028v.182q-.327.018-.482.073-.145.054-.2.209-.054.154-.054.499v2.143h2.951V5.748q0-.345-.054-.5-.055-.154-.209-.208-.145-.055-.472-.073v-.182q.417.028 1.153.028.781 0 1.162-.028v.182z"
  />
</svg>
