<?xml version="1.0" standalone="no"?><!-- Generator: Gravit.io --><svg xmlns="http://www.w3.org/2000/svg" xmlns:xlink="http://www.w3.org/1999/xlink" style="isolation:isolate" viewBox="0 0 512 512" width="512" height="512"><defs><clipPath id="_clipPath_OBxxuQdfPGf2396pFWqiMcl6UJu7w4fr"><rect width="512" height="512"/></clipPath></defs><g clip-path="url(#_clipPath_OBxxuQdfPGf2396pFWqiMcl6UJu7w4fr)"><rect x="107.5" y="210" width="297" height="210" transform="matrix(1,0,-0.268,1,84.404,0)" fill="rgb(222,214,166)"/><rect x="107.5" y="0" width="297" height="210" transform="matrix(1,0,0.268,1,-28.135,0)" fill="rgb(237,233,204)"/><rect x="107.5" y="420" width="297" height="210" transform="matrix(1,0,0.268,1,-140.673,0)" fill="rgb(237,233,204)"/><path d=" M 270 11 Q 293.216 55.824 253 56 C 212.784 56.176 126.248 37.201 141 93 C 155.752 148.799 368.775 100.934 388 144 C 398.424 167.351 403.466 189.347 403 210 Q 381.74 299.348 336 296 C 290.26 292.652 310.132 240.775 309.509 209.978 C 288.261 152.988 221.189 164.931 219.496 210.808 C 208.634 261.075 234.852 316.011 270 350 Q 319.154 397.533 253 420 Q 121.304 432.352 152 464 C 182.696 495.648 307.207 458.176 316 513" fill="none" vector-effect="non-scaling-stroke" stroke-width="8" stroke-dasharray="8,16" stroke="rgb(0,0,0)" stroke-opacity="0.5" stroke-linejoin="miter" stroke-linecap="square" stroke-miterlimit="3"/></g></svg>