<svg version="1" xmlns="http://www.w3.org/2000/svg" width="933.333" height="933.333" viewBox="0 0 700.000000 700.000000"><path d="M0 350v175h700V175H0v175zm670 0v145H30V205h640v145z"/><path d="M330.3 253.1c-26.9 3.1-50.7 21.3-63.4 48.4-12.5 26.7-13.9 68.1-3.1 95.5 10.2 26 29.8 42.6 57.5 48.6 9.2 2 30.3 2.3 37.7.5 6.7-1.7 16-6.1 26.2-12.5 4.7-2.9 8.4-4.6 9.3-4.2 2 .7 5.4 8.2 5.5 11.8 0 2.4.4 2.8 3 2.8h3v-25.3c.1-13.8.5-29.7.9-35.1.9-11.3 2-12.9 9.1-14.1 3.5-.6 4-1 4-3.4v-2.7l-33-.1-33-.2v2.8c0 2.7.2 2.8 8.5 3.9 17.4 2.3 18 3.5 18 34.4v22.7l-3.4 3.5c-7.4 7.6-24 12.6-37.5 11.1-33.2-3.5-49.3-22.6-54.6-64.8-1.6-12.9-.8-48.3 1.4-59 7.9-38.6 27.5-59.7 55.6-59.7 18.3 0 35.5 8.1 45.4 21.5 4.8 6.4 7.7 13.8 10.7 27.4 1.1 5.2 2.2 9.8 2.5 10.3.8 1.3 5.4.9 5.9-.5.2-.6.6-14.6.8-31l.6-29.7h-3.3c-3.2 0-3.3.1-4.4 6.1-1.1 5.8-3.3 9.9-5.4 9.9-.5 0-4.1-2-7.9-4.5-21.3-13.8-34.1-17-56.6-14.4zM73 259.1c0 2.2.7 3.2 3.5 4.5 1.9.9 5 3.7 6.9 6.3 1.8 2.5 15.8 27.7 31.1 55.9l27.7 51.3-.4 24.7c-.4 19.9-.8 25.4-2.1 28.5-1.9 4.4-5.6 6.3-14.1 7.3-5.3.6-5.6.8-5.6 3.4v2.7l34.3-.1 34.2-.1V441c0-2.3-.5-2.5-7.4-3.7-8.9-1.5-11.9-3.9-13.2-10.4-.4-2.4-.8-16.7-.9-31.7V368l20.1-40.3c11.1-22.1 22-43.3 24.2-47.2 4.8-8.2 11.6-15.8 15.7-17.5 2.3-1 3-1.9 3-4v-2.7l-25.5-.1-25.5-.1v2.8c0 2.7.3 2.9 5.8 3.5 12.1 1.5 16.2 4.4 16.9 12.3.7 7.3-1.9 13.7-22 53.9L161.5 365l-22.4-43.1c-12.3-23.7-22.9-45-23.4-47.4-1.7-7.4 1.6-10.4 13.6-12 4.3-.6 4.7-.8 4.7-3.4v-2.8h-30.5l-30.5.1v2.7zM448.2 258.9c.3 2.3 1 2.6 7.8 3.9 9 1.6 11.5 3.6 12.9 10.4 1.5 6.7 1.5 146.9 0 153.6-1.4 6.8-3.9 8.8-12.9 10.4-6.8 1.3-7.5 1.6-7.8 3.9l-.3 2.5H517v-2.7c0-2.5-.4-2.7-5.7-3.4-8.7-1.1-12.1-2.8-14-7.2-1.5-3.3-1.8-8.9-2.1-41.1l-.4-37.2h86.4l-.4 37.2c-.3 32-.6 37.8-2.1 41.1-1.9 4.4-5.3 6.1-13.9 7.2-5.5.7-5.8.9-5.8 3.4v2.7h68V441c0-2.5-.4-2.7-7.2-3.8-8.3-1.2-11.4-3.6-12.8-9.8-1.2-4.9-1.2-148.3-.1-154.2 1.3-6.6 4.1-8.9 12.7-10.4 7-1.1 7.4-1.3 7.4-3.8v-2.6h-68v2.7c0 2.5.3 2.7 5.8 3.4 8.6 1.1 12 2.8 13.9 7.2 1.5 3.3 1.8 9 2.1 40l.4 36.3h-86.4l.4-36.3c.3-31.1.6-36.7 2.1-40 1.9-4.4 5.3-6.1 14-7.2 5.3-.7 5.7-.9 5.7-3.4v-2.7h-69.1l.3 2.5z"/></svg>