<svg version="1" xmlns="http://www.w3.org/2000/svg" width="933.333" height="933.333" viewBox="0 0 700.000000 700.000000"><path d="M204.3 101.6L60 184.1v331.8l144.5 82.5C284 643.8 349.4 681 350 681c.6 0 66-37.2 145.5-82.6L640 515.9V184.1l-144.2-82.3c-79.3-45.3-144.9-82.4-145.7-82.5-.9-.1-66.5 37-145.8 82.3zm276 14.4c70.8 40.4 128.7 73.8 128.7 74.1 0 .9-257.3 147.4-259 147.4-1.7 0-259-146.5-259-147.4 0-1.1 257.5-148 259.1-147.8.9.1 59.5 33.3 130.2 73.7zM210.5 281.8l129 73.8.3 148.2c.1 81.5-.1 148.2-.4 148.2-.3 0-58.8-33.2-130-73.8L80.1 504.5 80 356.2c0-81.5.3-148.2.8-148.2.4 0 58.7 33.3 129.7 73.8zM620 356.2l-.1 148.3-129.3 73.7c-71.2 40.6-129.7 73.8-130 73.8-.3 0-.5-66.7-.4-148.2l.3-148.2 129-73.8c71-40.5 129.3-73.8 129.8-73.8.4 0 .7 66.7.7 148.2z"/><path d="M360.7 100.4c-1.5 1.2-1.6 1.7-.6 3.4 1 1.6 1 2.9.2 5.6-1.1 3.5-44.1 72.6-47.2 75.8-.9.9-11.5 7.4-23.6 14.3-37.5 21.7-38.4 22-49.5 18.1-6.3-2.1-7.6-2.3-9.2-1.2-1.7 1.2-.7 2 11.3 8.6 11.2 6.1 42.7 24.3 55 31.8 3.1 1.9 3.8 2 5.5.8 1.8-1.4 1.7-1.6-2-4.8-7.7-6.7-7.3-7.1 42.7-35.8l31.7-18.2 36.8-8.3c46.1-10.4 52.6-11.6 69.1-12.1 7.8-.3 14-.9 14.8-1.6 1.1-.9-.6-2.1-7.9-6-5.1-2.7-14.8-8.3-21.5-12.4-10.7-6.6-12.4-7.3-14.2-6.2-1.9 1.2-1.9 1.3 1.5 5 4.5 5 4.4 8.1-.1 12.4-7.3 6.8-22.7 12.3-58.5 20.8-12.4 2.9-22.6 5.2-22.8 5.1-.7-.6 36.9-56.5 38.7-57.4 3.3-1.8 6.3-1.3 14 2.4 8.3 4 8.1 4 10.5 2.2 1.7-1.2 0-2.3-16.1-10.9-23.1-12.4-35.7-19.6-46.7-26.9-4.9-3.2-9.2-5.9-9.5-5.9-.3 0-1.4.7-2.4 1.4zM158.2 333.1c-6.2 1.2-15.8 6.7-19.9 11.3-8.1 9.4-12.3 23.1-12.3 41.1 0 39.2 16.3 76.5 46.1 105 10.6 10.2 16.8 15.1 29.9 23.8 19.6 13 28.6 16.4 51.1 19.7 18.1 2.7 21.2 3.9 24 9.6 1.1 2.4 2.3 6.2 2.6 8.4.4 2.6 1.3 4.4 2.9 5.4l2.3 1.6.3-30.3c.2-16.6.7-31 1.2-32.1.7-1.5 1.7-1.7 4.7-1.3 3.5.5 3.9.3 3.9-1.6-.1-1.8-3.8-4.2-20.2-13.2-11.1-6.1-29.6-16.5-41.1-23.3-11.6-6.7-21.2-12.2-21.4-12.2-.2 0-.3 1-.3 2.2 0 1.6 1.2 3 3.9 4.5 6.4 3.6 15.7 12.9 17.7 17.6 1.6 3.6 1.9 7.7 2.2 27.5.3 21.1.2 23.5-1.4 25.3-2.2 2.4-5.7 2.4-11.4-.2-20.1-9.1-34-33.8-39.7-70.4-2.6-16.9-2.4-51.8.4-64.7 5.7-26.1 17.8-36.2 35.8-29.9 12.4 4.4 26.4 15.6 36.7 29.5 10.3 13.8 15.2 26.8 17.9 47.5 1.1 7.9 1.6 9.5 3.6 10.8 1.3.9 2.5 1.4 2.7 1.2.2-.2.6-13.6.7-29.8l.3-29.3-2.6-1.4c-2.6-1.3-2.6-1.3-3.2 3-.8 5.2-2.8 7.3-5.5 6-1-.5-4.7-4.5-8.1-8.9-14.3-18.2-32-32.4-53-42.4-20.8-9.8-36.3-12.9-50.8-10zM562.5 303.6c-11.5 6.8-29.7 17.2-40.2 23-16.4 9.1-19.3 11-19.3 13v2.3l4.3-1.9c5.7-2.6 9.3-2.6 10.9.2 1 1.7 1.4 10.8 1.6 35.8l.3 33.5-26.8 15.2-26.8 15.3-.3-33.1c-.1-20.9.2-34.5.8-37 1.3-4.8 5.6-9.8 11.5-13.6 3.2-2 4.5-3.5 4.5-5.1 0-1.2-.2-2.2-.5-2.2-.2 0-3.5 1.9-7.2 4.2-6.7 4.1-60.3 34.7-70.2 40-3.5 1.9-5.1 3.4-5.1 4.8 0 2.4-.2 2.4 6.1 0 2.8-1.1 6-1.8 7-1.5 3.8 1.2 4 5.5 3.7 78-.3 63.1-.5 70.3-2 73-1.8 3.3-6.5 8-11.5 11.4-2.8 1.9-4.6 6.1-2.7 6.1.3 0 5.4-2.9 11.3-6.4 13.7-8.2 50.3-29.1 62-35.3 7.3-3.8 9.1-5.2 9.1-7.1 0-2.7.3-2.7-5.4-.1-2.6 1.1-5.7 1.9-6.9 1.7-4.4-.6-4.7-3.2-4.7-39v-33.7l26.4-15c14.5-8.3 26.6-15.1 27-15.1 1 0 .7 61-.4 67.5-1.1 7-2.7 9.4-10.1 15.4-3.3 2.7-5.5 5.4-5.7 6.8-.3 2.3-.2 2.2 6-1.5 11.1-6.8 62.4-36 69.7-39.7 5.2-2.6 7.1-4.1 7.1-5.5 0-2.5-.3-2.5-6.8 0-6.1 2.3-8.7 1.6-9.9-2.8-.5-1.5-.8-33.8-.8-71.7 0-74 0-73.3 5.1-79.4 1.3-1.6 4.7-4.3 7.4-6.1 3.1-2 5-3.9 5-5.1 0-1-.6-1.8-1.2-1.8-.7.1-10.7 5.7-22.3 12.5z"/></svg>