<?xml version="1.0" encoding="UTF-8" standalone="no"?>
<!-- Created with Inkscape (http://www.inkscape.org/) -->

<svg
   xmlns:dc="http://purl.org/dc/elements/1.1/"
   xmlns:cc="http://creativecommons.org/ns#"
   xmlns:rdf="http://www.w3.org/1999/02/22-rdf-syntax-ns#"
   xmlns:svg="http://www.w3.org/2000/svg"
   xmlns="http://www.w3.org/2000/svg"
   xmlns:sodipodi="http://sodipodi.sourceforge.net/DTD/sodipodi-0.dtd"
   xmlns:inkscape="http://www.inkscape.org/namespaces/inkscape"
   width="64"
   height="64"
   viewBox="0 0 64 64"
   id="svg2"
   version="1.1"
   inkscape:version="0.91+devel+osxmenu r12911"
   sodipodi:docname="code.svg">
  <defs
     id="defs4" />
  <sodipodi:namedview
     id="base"
     pagecolor="#ffffff"
     bordercolor="#666666"
     borderopacity="1.0"
     inkscape:pageopacity="0.0"
     inkscape:pageshadow="2"
     inkscape:zoom="9.109375"
     inkscape:cx="32"
     inkscape:cy="32"
     inkscape:document-units="px"
     inkscape:current-layer="layer1"
     showgrid="false"
     units="px" />
  <metadata
     id="metadata7">
    <rdf:RDF>
      <cc:Work
         rdf:about="">
        <dc:format>image/svg+xml</dc:format>
        <dc:type
           rdf:resource="http://purl.org/dc/dcmitype/StillImage" />
        <dc:title></dc:title>
      </cc:Work>
    </rdf:RDF>
  </metadata>
  <g
     inkscape:label="Laag 1"
     inkscape:groupmode="layer"
     id="layer1"
     transform="translate(0,-280.06665)">
    <path
       style="font-style:normal;font-variant:normal;font-weight:normal;font-stretch:normal;font-size:medium;line-height:125%;font-family:Raanana;-inkscape-font-specification:Raanana;letter-spacing:0px;word-spacing:0px;fill:#50ffd7;fill-opacity:1;stroke:none;stroke-width:1px;stroke-linecap:butt;stroke-linejoin:miter;stroke-opacity:1"
       d="m 1.4090302,314.89629 c -0.3349105,0.86275 -0.55609268,1.83231 -0.66476258,2.90657 -0.15374988,0.99617 -0.25186831,2.06294 -0.29312995,3.20243 l 9.20308843,-5.31341 c -0.04367,1.67638 -0.1345303,3.4409 -0.2717037,5.29026 -0.4034751,5.20132 -0.5376559,8.48583 -0.4037434,9.85143 0.1274678,1.35442 0.5270361,2.6085 1.196921,3.76878 0.36715,0.63591 0.860401,1.20925 1.479434,1.71463 l 1.248814,-4.56163 c -0.186336,-0.21969 -0.396416,-0.53444 -0.634736,-0.94722 -1.378425,-2.3875 -1.859353,-6.50552 -1.442774,-12.35404 0.148327,-1.85581 0.209119,-3.16276 0.186562,-3.92324 -0.02901,-0.77166 -0.227012,-1.75068 -0.598195,-2.93466 l -8.1833124,4.72464 -0.822465,-1.42455 z M 50.479497,287.81636 c -0.639247,0.69634 -1.196583,1.37513 -1.676193,2.03879 -0.486043,0.65251 -1.232335,2.02656 -2.237651,4.12427 l 2.255591,-0.499 c 0.849283,-0.17795 1.390644,-0.20647 1.622864,-0.0877 0.243378,0.11238 0.477187,0.36275 0.702627,0.75322 l 6.628625,11.48112 -2.711036,1.56521 -0.02139,3.67309 8.500228,-4.90761 0.0057,-3.66403 -3.533131,2.03985 -9.536235,-16.51725 z m -16.294219,9.7631 c -1.662322,0.95974 -2.610156,2.47666 -2.843824,4.54537 -0.233672,2.0687 0.173246,4.01021 1.223171,5.82873 0.72142,1.24954 1.703381,2.14922 2.942586,2.69817 1.239211,0.54895 2.387098,0.51701 3.446968,-0.0949 1.071026,-0.61836 2.110269,-1.87148 3.11651,-3.76147 l -0.450091,12.86535 2.926747,-3.7858 -0.784351,-12.44549 c -0.110673,-1.17076 -0.414967,-2.18976 -0.917382,-3.05997 -1.08857,-1.88546 -2.430487,-3.03984 -4.025441,-3.45777 -1.594953,-0.41794 -3.139917,-0.19534 -4.634893,0.66778 z m -15.475301,9.1815 c -1.015245,0.58615 -1.736056,1.16456 -2.163334,1.7385 l 0.271119,3.05655 c 0.716538,-0.56246 1.430337,-1.04754 2.144356,-1.45978 2.510219,-1.44928 4.313428,-1.22458 5.408443,0.67205 0.48309,0.83673 0.598927,2.58326 0.34871,5.24166 -0.429954,4.27946 -0.616457,6.91455 -0.562491,7.9098 0.04752,0.98408 0.311898,2.42589 0.794905,4.31884 l 9.438422,-5.44928 -0.461823,-3.3941 -7.850707,4.53261 c -0.123001,-2.14541 0.04032,-4.76108 0.489962,-7.84701 0.477728,-2.52199 0.673506,-4.30849 0.587331,-5.35953 -0.08146,-1.06863 -0.347028,-1.99237 -0.797913,-2.77333 -0.72786,-1.26069 -1.783185,-2.00643 -3.164778,-2.23517 -1.370438,-0.23518 -2.864506,0.11421 -4.482202,1.04819 z m 16.182381,-6.21767 c 1.182592,-0.68277 2.377454,-0.87569 3.589967,-0.5791 1.206082,0.28545 2.120386,0.96247 2.738746,2.03351 0.36715,0.63592 0.552178,1.43788 0.558067,2.40138 -0.360212,0.92199 -1.084895,1.69739 -2.178236,2.32863 -1.216061,0.7021 -2.344424,0.89103 -3.379706,0.56647 -1.024116,-0.33099 -1.795557,-0.95058 -2.317302,-1.85427 -0.47665,-0.82558 -0.764722,-1.84789 -0.861255,-3.07144 0.316518,-0.68849 0.934884,-1.297 1.849719,-1.82518 z"
       id="path4146"
       inkscape:connector-curvature="0" />
  </g>
</svg>
