<?xml version="1.0" standalone="no"?><!-- Generator: Gravit.io --><svg xmlns="http://www.w3.org/2000/svg" xmlns:xlink="http://www.w3.org/1999/xlink" style="isolation:isolate" viewBox="0 0 64 64" width="64" height="64"><defs><clipPath id="_clipPath_zGq4ZSfmBW6oe22xFT7sf3iIOKWvEMvX"><rect width="64" height="64"/></clipPath></defs><g clip-path="url(#_clipPath_zGq4ZSfmBW6oe22xFT7sf3iIOKWvEMvX)"><circle vector-effect="non-scaling-stroke" cx="32" cy="32" r="32" fill="rgb(239,217,255)"/><path d=" M 53.5 40.5 C 53.5 35.533 48.123 31.5 41.5 31.5 C 34.877 31.5 29.5 35.533 29.5 40.5 C 29.5 41.604 30.396 42.5 31.5 42.5 L 51.5 42.5 C 52.604 42.5 53.5 41.604 53.5 40.5 Z " fill="rgb(188,140,255)"/><circle vector-effect="non-scaling-stroke" cx="41.5" cy="25.5" r="8" fill="rgb(94,71,204)"/><path d=" M 34.5 44.5 C 34.5 39.533 29.123 35.5 22.5 35.5 C 15.877 35.5 10.5 39.533 10.5 44.5 C 10.5 45.604 11.396 46.5 12.5 46.5 L 32.5 46.5 C 33.604 46.5 34.5 45.604 34.5 44.5 Z " fill="rgb(94,71,204)"/><circle vector-effect="non-scaling-stroke" cx="22.5" cy="29.5" r="8" fill="rgb(188,140,255)"/></g></svg>