<?xml version="1.0" standalone="no"?><!-- Generator: Gravit.io --><svg xmlns="http://www.w3.org/2000/svg" xmlns:xlink="http://www.w3.org/1999/xlink" style="isolation:isolate" viewBox="0 0 64 64" width="64" height="64"><defs><clipPath id="_clipPath_HW8Ms0ccHowcgfPfSxAKSwdCB2fpOjDN"><rect width="64" height="64"/></clipPath></defs><g clip-path="url(#_clipPath_HW8Ms0ccHowcgfPfSxAKSwdCB2fpOjDN)"><circle vector-effect="non-scaling-stroke" cx="32" cy="32" r="32" fill="rgb(239,217,255)"/><path d=" M 32 24 L 44 20 L 40 32 L 32 32 L 32 24 Z  M 32 40 L 44 44 L 40 32 L 32 32 L 32 40 Z  M 32 24 L 20 20 L 24 32 L 32 32 L 32 24 Z  M 32 40 L 20 44 L 24 32 L 32 32 L 32 40 Z " fill-rule="evenodd" fill="rgb(223,191,255)"/><path d=" M 8 32 L 32 32 L 26 26 L 8 32 Z  M 32 56 L 32 32 L 26 38 L 32 56 Z  M 56 32 L 38 26 L 32 32 L 56 32 Z  M 32 8 L 26 26 L 32 32 L 32 8 Z " fill-rule="evenodd" fill="rgb(188,140,255)"/><path d=" M 56 32 L 32 32 L 38 38 L 56 32 Z  M 32 8 L 32 32 L 38 26 L 32 8 Z  M 8 32 L 26 38 L 32 32 L 8 32 Z  M 32 56 L 38 38 L 32 32 L 32 56 Z " fill-rule="evenodd" fill="rgb(94,71,204)"/></g></svg>