<?xml version="1.0" standalone="no"?><!-- Generator: Gravit.io --><svg xmlns="http://www.w3.org/2000/svg" xmlns:xlink="http://www.w3.org/1999/xlink" style="isolation:isolate" viewBox="0 0 64 64" width="64" height="64"><defs><clipPath id="_clipPath_2VqP9BZop8SMu9Hm5WijZZ7EhBjzU4Bo"><rect width="64" height="64"/></clipPath></defs><g clip-path="url(#_clipPath_2VqP9BZop8SMu9Hm5WijZZ7EhBjzU4Bo)"><circle vector-effect="non-scaling-stroke" cx="32" cy="32" r="32" fill="rgb(239,217,255)"/><circle vector-effect="non-scaling-stroke" cx="32" cy="32" r="28" fill="none" stroke-width="2" stroke="rgb(94,71,204)" stroke-linejoin="miter" stroke-linecap="butt" stroke-miterlimit="4"/><path d=" M 27 27 L 16 32 L 27 37 L 32 32 L 27 27 Z  M 37 37 L 32 48 L 27 37 L 32 32 L 37 37 Z  M 27 27 L 32 15 L 37 27 L 32 32 L 27 27 Z  M 37 37 L 48 32 L 37 27 L 32 32 L 37 37 Z " fill-rule="evenodd" fill="rgb(223,191,255)"/><path d=" M 17 17 L 27 37 L 47 47 L 34 30 L 17 17 Z " fill="rgb(94,71,204)"/><path d=" M 17 17 L 34 30 L 47 47 L 37 27 L 17 17 Z " fill="rgb(188,140,255)"/></g></svg>