<?xml version="1.0" standalone="no"?><!-- Generator: Gravit.io --><svg xmlns="http://www.w3.org/2000/svg" xmlns:xlink="http://www.w3.org/1999/xlink" style="isolation:isolate" viewBox="0 0 64 64" width="64" height="64"><defs><clipPath id="_clipPath_1RF2MUhXdaMOWDVfrqBMb7xMeKzH0RRN"><rect width="64" height="64"/></clipPath></defs><g clip-path="url(#_clipPath_1RF2MUhXdaMOWDVfrqBMb7xMeKzH0RRN)"><circle vector-effect="non-scaling-stroke" cx="32" cy="32" r="32" fill="rgb(239,217,255)"/><g><path d=" M 44.606 20.446 L 44.606 20.446 Q 48.482 20.785 50.698 22.733 L 50.698 22.733 L 50.698 22.733 Q 52.914 24.681 52.654 27.66 L 52.654 27.66 L 52.654 27.66 Q 52.396 30.603 49.759 32.433 L 49.759 32.433 L 49.759 32.433 Q 47.122 34.264 42.805 34.826 L 42.805 34.826 L 42.347 40.066 L 41.629 40.003 L 42.116 34.44 L 42.116 34.44 Q 45.022 33.465 46.137 31.881 L 46.137 31.881 L 46.137 31.881 Q 47.252 30.297 47.462 27.893 L 47.462 27.893 L 47.462 27.893 Q 47.748 24.627 46.702 22.944 L 46.702 22.944 L 46.702 22.944 Q 45.656 21.261 43.61 21.082 L 43.61 21.082 L 43.61 21.082 Q 42.605 20.995 41.741 21.154 L 41.741 21.154 L 41.741 21.154 Q 40.878 21.313 40.406 21.742 L 40.406 21.742 L 40.406 21.742 Q 42.362 22.528 42.187 24.538 L 42.187 24.538 L 42.187 24.538 Q 42.089 25.651 41.235 26.317 L 41.235 26.317 L 41.235 26.317 Q 40.381 26.984 39.125 26.874 L 39.125 26.874 L 39.125 26.874 Q 38.013 26.777 37.358 25.996 L 37.358 25.996 L 37.358 25.996 Q 36.703 25.215 36.794 24.175 L 36.794 24.175 L 36.794 24.175 Q 36.885 23.134 37.488 22.445 L 37.488 22.445 L 37.488 22.445 Q 38.09 21.757 39.113 21.231 L 39.113 21.231 L 39.113 21.231 Q 41.34 20.161 44.606 20.446 L 44.606 20.446 Z  M 41.729 43.411 L 41.729 43.411 Q 43.128 43.534 43.889 44.341 L 43.889 44.341 L 43.889 44.341 Q 44.651 45.149 44.538 46.441 L 44.538 46.441 L 44.538 46.441 Q 44.424 47.733 43.535 48.397 L 43.535 48.397 L 43.535 48.397 Q 42.645 49.06 41.245 48.938 L 41.245 48.938 L 41.245 48.938 Q 39.846 48.815 39.085 48.008 L 39.085 48.008 L 39.085 48.008 Q 38.323 47.2 38.437 45.908 L 38.437 45.908 L 38.437 45.908 Q 38.55 44.616 39.439 43.952 L 39.439 43.952 L 39.439 43.952 Q 40.329 43.289 41.729 43.411 L 41.729 43.411 Z " fill-rule="evenodd" fill="rgb(188,140,255)"/><path d=" M 18.222 20.618 L 18.222 20.618 Q 22.098 20.279 24.619 21.812 L 24.619 21.812 L 24.619 21.812 Q 27.14 23.345 27.401 26.324 L 27.401 26.324 L 27.401 26.324 Q 27.658 29.267 25.379 31.528 L 25.379 31.528 L 25.379 31.528 Q 23.099 33.788 18.946 35.092 L 18.946 35.092 L 19.405 40.332 L 18.687 40.394 L 18.2 34.832 L 18.2 34.832 Q 20.893 33.367 21.716 31.613 L 21.716 31.613 L 21.716 31.613 Q 22.539 29.859 22.328 27.455 L 22.328 27.455 L 22.328 27.455 Q 22.043 24.189 20.72 22.714 L 20.72 22.714 L 20.72 22.714 Q 19.398 21.238 17.352 21.417 L 17.352 21.417 L 17.352 21.417 Q 16.347 21.505 15.524 21.812 L 15.524 21.812 L 15.524 21.812 Q 14.701 22.119 14.311 22.623 L 14.311 22.623 L 14.311 22.623 Q 16.375 23.058 16.55 25.067 L 16.55 25.067 L 16.55 25.067 Q 16.648 26.18 15.923 26.985 L 15.923 26.985 L 15.923 26.985 Q 15.197 27.79 13.941 27.899 L 13.941 27.899 L 13.941 27.899 Q 12.829 27.997 12.048 27.342 L 12.048 27.342 L 12.048 27.342 Q 11.268 26.687 11.177 25.646 L 11.177 25.646 L 11.177 25.646 Q 11.086 24.605 11.56 23.823 L 11.56 23.823 L 11.56 23.823 Q 12.033 23.04 12.949 22.345 L 12.949 22.345 L 12.949 22.345 Q 14.957 20.904 18.222 20.618 L 18.222 20.618 Z  M 19.377 43.733 L 19.377 43.733 Q 20.776 43.611 21.666 44.274 L 21.666 44.274 L 21.666 44.274 Q 22.556 44.938 22.669 46.23 L 22.669 46.23 L 22.669 46.23 Q 22.782 47.522 22.021 48.33 L 22.021 48.33 L 22.021 48.33 Q 21.26 49.138 19.86 49.26 L 19.86 49.26 L 19.86 49.26 Q 18.461 49.383 17.571 48.719 L 17.571 48.719 L 17.571 48.719 Q 16.681 48.056 16.568 46.764 L 16.568 46.764 L 16.568 46.764 Q 16.455 45.472 17.216 44.664 L 17.216 44.664 L 17.216 44.664 Q 17.977 43.856 19.377 43.733 L 19.377 43.733 Z " fill-rule="evenodd" fill="rgb(188,140,255)"/><path d=" M 31.29 14.88 L 31.29 14.88 Q 35.936 14.88 38.775 16.967 L 38.775 16.967 L 38.775 16.967 Q 41.614 19.053 41.614 22.623 L 41.614 22.623 L 41.614 22.623 Q 41.614 26.15 38.667 28.602 L 38.667 28.602 L 38.667 28.602 Q 35.721 31.054 30.645 32.172 L 30.645 32.172 L 30.645 38.452 L 29.785 38.452 L 29.785 31.785 L 29.785 31.785 Q 33.14 30.322 34.301 28.322 L 34.301 28.322 L 34.301 28.322 Q 35.463 26.322 35.463 23.44 L 35.463 23.44 L 35.463 23.44 Q 35.463 19.526 34.043 17.633 L 34.043 17.633 L 34.043 17.633 Q 32.624 15.741 30.172 15.741 L 30.172 15.741 L 30.172 15.741 Q 28.968 15.741 27.957 16.02 L 27.957 16.02 L 27.957 16.02 Q 26.946 16.3 26.43 16.859 L 26.43 16.859 L 26.43 16.859 Q 28.838 17.59 28.838 19.999 L 28.838 19.999 L 28.838 19.999 Q 28.838 21.333 27.892 22.214 L 27.892 22.214 L 27.892 22.214 Q 26.946 23.096 25.44 23.096 L 25.44 23.096 L 25.44 23.096 Q 24.107 23.096 23.247 22.236 L 23.247 22.236 L 23.247 22.236 Q 22.386 21.376 22.386 20.128 L 22.386 20.128 L 22.386 20.128 Q 22.386 18.881 23.032 17.999 L 23.032 17.999 L 23.032 17.999 Q 23.677 17.117 24.838 16.386 L 24.838 16.386 L 24.838 16.386 Q 27.376 14.88 31.29 14.88 L 31.29 14.88 Z  M 30.258 42.495 L 30.258 42.495 Q 31.935 42.495 32.925 43.377 L 32.925 43.377 L 32.925 43.377 Q 33.914 44.259 33.914 45.808 L 33.914 45.808 L 33.914 45.808 Q 33.914 47.356 32.925 48.238 L 32.925 48.238 L 32.925 48.238 Q 31.935 49.12 30.258 49.12 L 30.258 49.12 L 30.258 49.12 Q 28.58 49.12 27.591 48.238 L 27.591 48.238 L 27.591 48.238 Q 26.602 47.356 26.602 45.808 L 26.602 45.808 L 26.602 45.808 Q 26.602 44.259 27.591 43.377 L 27.591 43.377 L 27.591 43.377 Q 28.58 42.495 30.258 42.495 L 30.258 42.495 Z " fill-rule="evenodd" fill="rgb(94,71,204)"/></g></g></svg>