<?xml version="1.0" standalone="no"?><!-- Generator: Gravit.io --><svg xmlns="http://www.w3.org/2000/svg" xmlns:xlink="http://www.w3.org/1999/xlink" style="isolation:isolate" viewBox="0 0 64 64" width="64" height="64"><defs><clipPath id="_clipPath_N29fCDn2IyK29qc4rbeTatNeiXUH4KTO"><rect width="64" height="64"/></clipPath></defs><g clip-path="url(#_clipPath_N29fCDn2IyK29qc4rbeTatNeiXUH4KTO)"><circle vector-effect="non-scaling-stroke" cx="32" cy="32" r="32" fill="rgb(239,217,255)"/><path d=" M 32 59 C 31.909 48.13 26.702 42.923 16 43 C 5.298 43.077 8.011 29.839 17 30 C 25.989 30.161 32.71 40.043 45 40 C 57.29 39.957 57.6 9.611 45 9 C 32.4 8.389 32.042 13.952 32 20" fill="none" vector-effect="non-scaling-stroke" stroke-width="4" stroke-dasharray="4,6" stroke="rgb(94,71,204)" stroke-linejoin="miter" stroke-linecap="butt" stroke-miterlimit="3"/><path d=" M 37 17 L 27 27 M 27 17 L 37 27" fill-rule="evenodd" fill="none" vector-effect="non-scaling-stroke" stroke-width="4" stroke="rgb(188,140,255)" stroke-linejoin="miter" stroke-linecap="butt" stroke-miterlimit="3"/><path d=" M 15 23 L 13 23 L 13 21 L 9 21 L 14 8 L 19 21 L 15 21 L 15 23 Z " fill="rgb(188,140,255)"/><path d=" M 49 53 L 47 53 L 47 51 L 43 51 L 48 38 L 53 51 L 49 51 L 49 53 Z " fill="rgb(188,140,255)"/></g></svg>